<svg xmlns="http://www.w3.org/2000/svg" width="77" height="69.69" viewBox="0 0 77 69.69">
  <metadata><?xpacket begin="﻿" id="W5M0MpCehiHzreSzNTczkc9d"?>
<x:xmpmeta xmlns:x="adobe:ns:meta/" x:xmptk="Adobe XMP Core 5.6-c138 79.159824, 2016/09/14-01:09:01        ">
   <rdf:RDF xmlns:rdf="http://www.w3.org/1999/02/22-rdf-syntax-ns#">
      <rdf:Description rdf:about=""/>
   </rdf:RDF>
</x:xmpmeta>
                                                                                                    
                                                                                                    
                                                                                                    
                                                                                                    
                                                                                                    
                                                                                                    
                                                                                                    
                                                                                                    
                                                                                                    
                                                                                                    
                                                                                                    
                                                                                                    
                                                                                                    
                                                                                                    
                                                                                                    
                                                                                                    
                                                                                                    
                                                                                                    
                                                                                                    
                                                                                                    
                           
<?xpacket end="w"?></metadata>
<defs>
    <style>
      .cls-1 {
        fill: #e77524;
        fill-rule: evenodd;
      }
    </style>
  </defs>
  <path class="cls-1" d="M688.066,2651.63c-0.06-5.21-.062-10.41-0.065-15.62s0.009-10.41.065-15.62c0,0.7.01-2.6,0.063-4.74H668.913a3.591,3.591,0,0,0-3.594,2.12c-0.114.24-.214,0.49-0.319,0.74v32.86a11.162,11.162,0,0,0,.911,1.56,3.082,3.082,0,0,0,2.46,1.05c6.571,0,13.143.02,19.716-.01C688.075,2652.85,688.069,2651.87,688.066,2651.63Zm53.725-36.48a5.561,5.561,0,0,0-3.521-4.19,9.787,9.787,0,0,0-3.13-.49c-5.643-.04-11.288-0.02-16.931-0.01-0.725,0-.752-0.05-0.636-0.75,0.351-2.07.648-4.14,1.053-6.2a15.69,15.69,0,0,0-.308-8.25c-0.834-2.44-1.778-4.83-2.682-7.24a4.822,4.822,0,0,0-2.733-2.93,8.544,8.544,0,0,0-7.619.23,4.208,4.208,0,0,0-2.462,4.05c0.072,2.66.091,5.33,0.2,7.99a4.353,4.353,0,0,1-.588,2.45c-2.047,3.53-4.028,7.09-6.167,10.57a59.479,59.479,0,0,1-3.787,5.06q-0.069.09-.15,0.18v7.2q0,13.635-.079,27.27A10.231,10.231,0,0,0,698,2651.7c9.637-.06,19.273-0.03,28.908-0.03a15.637,15.637,0,0,0,4.946-.63,7.627,7.627,0,0,0,5.478-6.92,8.714,8.714,0,0,0-.421-3.78,0.843,0.843,0,0,1,.17-0.65,8.462,8.462,0,0,0,1.887-5.72,9.288,9.288,0,0,0-.5-2.19,0.892,0.892,0,0,1,.139-0.96,7.9,7.9,0,0,0,1.88-5.21,18.3,18.3,0,0,0-.54-2.75,0.927,0.927,0,0,1,.043-0.67,8.309,8.309,0,0,0,1.91-4.04A0.4,0.4,0,0,1,742,2618v-2.13C741.934,2615.63,741.856,2615.39,741.791,2615.15Z" transform="translate(-665 -2584.28)"/>
</svg>
